<?xml version="1.0" encoding="UTF-8"?><svg id="Layer_1" xmlns="http://www.w3.org/2000/svg" viewBox="0 0 600 200"><defs><style>.cls-1{fill:#69aee9;}.cls-2{fill:#dc6721;}.cls-3{fill:rgba(251,162,154,.2);stroke:#fba29a;}.cls-3,.cls-4{stroke-miterlimit:10;}.cls-4{fill:rgba(105,174,233,.2);stroke:#69aee9;}</style></defs><ellipse class="cls-3" cx="353.57" cy="129.63" rx="21.16" ry="21.21"/><ellipse class="cls-3" cx="247.06" cy="56.92" rx="21.16" ry="21.21"/><ellipse class="cls-3" cx="144.09" cy="37.89" rx="21.16" ry="21.21"/><ellipse class="cls-4" cx="448.18" cy="35.71" rx="21.16" ry="21.21"/><circle class="cls-1" cx="504.84" cy="104.22" r="4.77"/><path class="cls-2" d="M514.38,106.22h0c0-1.11-.94-2-2.1-2s-2.1,.9-2.1,2h0c0,2.94-2.39,5.33-5.33,5.33s-5.33-2.39-5.33-5.33c0-1.11-.94-2-2.1-2s-2.1,.9-2.1,2c0,4.54,3.18,8.34,7.43,9.3v16.82h0c0,1.11,.94,2,2.1,2s2.1-.9,2.1-2h0v-16.82c4.26-.96,7.43-4.76,7.43-9.3Z"/><circle class="cls-1" cx="533.64" cy="113.76" r="4.77"/><path class="cls-2" d="M540.42,120.75h0c.62-.92,.34-2.19-.62-2.84s-2.24-.43-2.86,.48h0c-1.65,2.45-4.96,3.09-7.4,1.44-2.44-1.65-3.09-4.96-1.44-7.4,.62-.92,.34-2.19-.62-2.84-.96-.65-2.24-.43-2.86,.48-2.54,3.77-2.03,8.7,.96,11.87l-9.4,13.94h0c-.62,.92-.34,2.19,.62,2.84s2.24,.43,2.86-.48h0l9.4-13.94c4.06,1.59,8.82,.21,11.36-3.55Z"/><circle class="cls-1" cx="138.88" cy="34.74" r="4.77"/><circle class="cls-1" cx="259.86" cy="50.01" r="4.77"/><circle class="cls-1" cx="50.91" cy="92.64" r="4.77"/><path class="cls-2" d="M56.62,84.75h0c-1.01-.44-2.21,.05-2.68,1.12s-.04,2.29,.97,2.74h0c2.69,1.19,3.9,4.34,2.7,7.03s-4.35,3.9-7.04,2.7c-1.01-.45-2.21,.05-2.68,1.11s-.04,2.29,.97,2.74c4.15,1.85,8.92,.49,11.52-3.01l15.36,6.84h0c1.01,.45,2.21-.05,2.68-1.11,.47-1.06,.04-2.29-.97-2.74h0l-15.36-6.84c.86-4.28-1.32-8.73-5.47-10.57Z"/><circle class="cls-1" cx="139.69" cy="143.01" r="4.77"/><path class="cls-2" d="M132.82,149.92h0c.93,.59,2.19,.29,2.82-.68,.63-.97,.39-2.25-.53-2.85h0c-2.47-1.6-3.17-4.9-1.57-7.37,1.6-2.47,4.91-3.17,7.37-1.57,.93,.6,2.19,.3,2.82-.67,.63-.97,.39-2.25-.53-2.85-3.81-2.48-8.73-1.88-11.85,1.17l-14.1-9.16h0c-.93-.6-2.19-.3-2.82,.67s-.39,2.25,.53,2.85h0l14.1,9.16c-1.51,4.09-.06,8.83,3.75,11.3Z"/><circle class="cls-1" cx="345.66" cy="122.72" r="4.77"/><circle class="cls-1" cx="448.52" cy="87.05" r="4.77"/><path class="cls-2" d="M458.06,85.05h0c0,1.11-.94,2-2.1,2s-2.1-.9-2.1-2h0c0-2.94-2.39-5.33-5.33-5.33s-5.33,2.39-5.33,5.33c0,1.11-.94,2-2.1,2s-2.1-.9-2.1-2c0-4.54,3.18-8.34,7.43-9.3v-16.82h0c0-1.11,.94-2,2.1-2s2.1,.9,2.1,2h0v16.82c4.26,.96,7.43,4.76,7.43,9.3Z"/><ellipse class="cls-4" cx="97.46" cy="113.37" rx="21.16" ry="21.21" transform="translate(-45.75 156.29) rotate(-66)"/><ellipse class="cls-4" cx="504.84" cy="155.18" rx="21.16" ry="21.21"/><circle class="cls-1" cx="380.2" cy="28.87" r="4.77"/><path class="cls-2" d="M370.66,30.87h0c0-1.11,.94-2,2.1-2s2.1,.9,2.1,2h0c0,2.94,2.39,5.33,5.33,5.33s5.33-2.39,5.33-5.33c0-1.11,.94-2,2.1-2s2.1,.9,2.1,2c0,4.54-3.18,8.34-7.43,9.3v16.82h0c0,1.11-.94,2-2.1,2s-2.1-.9-2.1-2h0v-16.82c-4.26-.96-7.43-4.76-7.43-9.3Z"/><circle class="cls-1" cx="390.1" cy="130.46" r="4.77"/><path class="cls-2" d="M399.21,126.99h0c.17,1.09-.62,2.13-1.76,2.31-1.15,.18-2.22-.56-2.39-1.65h0c-.46-2.91-3.19-4.89-6.1-4.43-2.91,.46-4.89,3.19-4.43,6.1,.17,1.09-.62,2.12-1.76,2.31s-2.22-.56-2.39-1.65c-.71-4.49,1.83-8.74,5.89-10.35l-2.63-16.61h0c-.17-1.09,.62-2.12,1.76-2.31s2.22,.56,2.39,1.65h0l2.63,16.61c4.35,.28,8.09,3.54,8.8,8.02Z"/><ellipse class="cls-4" cx="380.2" cy="79.82" rx="21.16" ry="21.21"/><ellipse class="cls-4" cx="278.8" cy="111" rx="21.16" ry="21.21"/><ellipse class="cls-3" cx="211.38" cy="141.98" rx="21.16" ry="21.21"/><circle class="cls-1" cx="115.74" cy="77.77" r="4.77"/><circle class="cls-1" cx="389.59" cy="170.04" r="4.77"/></svg>